<?xml version="1.0" standalone="no"?><!DOCTYPE svg PUBLIC "-//W3C//DTD SVG 1.1//EN" "http://www.w3.org/Graphics/SVG/1.1/DTD/svg11.dtd"><svg t="1593674687676" class="icon" viewBox="0 0 1024 1024" version="1.1" xmlns="http://www.w3.org/2000/svg" p-id="2341" width="128" height="128" xmlns:xlink="http://www.w3.org/1999/xlink"><defs><style type="text/css"></style></defs><path d="M554.666667 597.333333v42.666667h-85.333334v-42.666667H384v-85.333333h76.8l-68.266667-68.266667L456.533333 384l55.466667 55.466667L567.466667 384l59.733333 59.733333-64 68.266667H640v85.333333h-85.333333z m341.333333-213.333333v384H128V256h768v128z m-85.333333 21.333333V341.333333H213.333333v64c25.6 21.333333 42.666667 51.2 42.666667 85.333334s-17.066667 64-42.666667 85.333333V682.666667h597.333334v-106.666667c-25.6-21.333333-42.666667-51.2-42.666667-85.333333s17.066667-64 42.666667-85.333334z"  p-id="2342"></path></svg>